<svg xmlns="http://www.w3.org/2000/svg" width="760" height="436" viewBox="0 0 760 436" font-family="ui-sans-serif, system-ui, -apple-system, Segoe UI, Roboto, sans-serif">
<rect width="760" height="436" rx="12" fill="#000000"/>
<text x="24" y="34" fill="#ffffff" font-size="19" font-weight="700">cnfast vs clsx + tailwind-merge</text>
<text x="24" y="58" fill="#8b8b8b" font-size="13">3.38x geometric mean speedup, byte-identical output</text>
<rect x="234" y="70" width="11" height="11" rx="2" fill="#22c55e"/>
<text x="251" y="80" fill="#8b8b8b" font-size="12">cnfast</text>
<rect x="312" y="70" width="11" height="11" rx="2" fill="#3f3f3f"/>
<text x="329" y="80" fill="#8b8b8b" font-size="12">clsx + tailwind-merge</text>
<line x1="331.2" y1="84" x2="331.2" y2="396" stroke="#52525b" stroke-width="1" stroke-dasharray="3 3"/>
<text x="331.2" y="78" fill="#8b8b8b" font-size="11" text-anchor="middle">1x</text>
<text x="24" y="104" fill="#d4d4d4" font-size="13" font-weight="500">Cached re-render</text>
<text x="24" y="121" fill="#8b8b8b" font-size="11">repeated class strings, cache hits</text>
<rect x="234" y="92" width="97.2" height="14" rx="3" fill="#3f3f3f"/>
<rect x="234" y="110" width="127.3" height="14" rx="3" fill="#22c55e"/>
<text x="371.3" y="111" fill="#ffffff" font-size="14" font-weight="700">1.31x</text>
<text x="24" y="156" fill="#d4d4d4" font-size="13" font-weight="500">Merge engine (cold)</text>
<text x="24" y="173" fill="#8b8b8b" font-size="11">unique strings, every call misses</text>
<rect x="234" y="144" width="97.2" height="14" rx="3" fill="#3f3f3f"/>
<rect x="234" y="162" width="448.2" height="14" rx="3" fill="#22c55e"/>
<text x="692.2" y="163" fill="#ffffff" font-size="14" font-weight="700">4.61x</text>
<text x="24" y="208" fill="#d4d4d4" font-size="13" font-weight="500">Component corpus</text>
<text x="24" y="225" fill="#8b8b8b" font-size="11">harvested app source, geomean</text>
<rect x="234" y="196" width="97.2" height="14" rx="3" fill="#3f3f3f"/>
<rect x="234" y="214" width="363.1" height="14" rx="3" fill="#22c55e"/>
<text x="607.1" y="215" fill="#ffffff" font-size="14" font-weight="700">3.73x</text>
<text x="24" y="260" fill="#d4d4d4" font-size="13" font-weight="500">Page render</text>
<text x="24" y="277" fill="#8b8b8b" font-size="11">real call sequence, geomean</text>
<rect x="234" y="248" width="97.2" height="14" rx="3" fill="#3f3f3f"/>
<rect x="234" y="266" width="196.4" height="14" rx="3" fill="#22c55e"/>
<text x="440.4" y="267" fill="#ffffff" font-size="14" font-weight="700">2.02x</text>
<text x="24" y="312" fill="#d4d4d4" font-size="13" font-weight="500">Live data grid</text>
<text x="24" y="329" fill="#8b8b8b" font-size="11">12K cells, live arbitrary values</text>
<rect x="234" y="300" width="97.2" height="14" rx="3" fill="#3f3f3f"/>
<rect x="234" y="318" width="206.1" height="14" rx="3" fill="#22c55e"/>
<text x="450.1" y="319" fill="#ffffff" font-size="14" font-weight="700">2.12x</text>
<text x="24" y="364" fill="#ffffff" font-size="13" font-weight="700">Overall</text>
<text x="24" y="381" fill="#8b8b8b" font-size="11">geometric mean of 72 workloads</text>
<rect x="234" y="352" width="97.2" height="14" rx="3" fill="#3f3f3f"/>
<rect x="234" y="370" width="329.0" height="14" rx="3" fill="#22c55e"/>
<text x="573.0" y="371" fill="#ffffff" font-size="14" font-weight="700">3.38x</text>
<text x="24" y="420" fill="#8b8b8b" font-size="11">9.11 KB gzipped vs 8.52 KB baseline  ·  Bun 1.3.14 best-of-3  ·  19d75d3</text>
</svg>
