<svg xmlns="http://www.w3.org/2000/svg" xmlns:xlink="http://www.w3.org/1999/xlink" version="1.1" class="marks" width="817" height="213" viewBox="0 0 817 213"><rect width="817" height="213" fill="#000000"/><g fill="none" stroke-miterlimit="10" transform="translate(238,67)"><g class="mark-group role-frame root" role="graphics-object" aria-roledescription="group mark container"><g transform="translate(0,0)"><path class="background" aria-hidden="true" d="M0,0h560v96h-560Z"/><g><g class="mark-group role-axis" role="graphics-symbol" aria-roledescription="axis" aria-label="X-axis titled 'relative throughput (x)' for a linear scale with values from 0 to 4"><g transform="translate(0.5,96.5)"><path class="background" aria-hidden="true" d="M0,0h0v0h0Z" pointer-events="none"/><g><g class="mark-rule role-axis-tick" pointer-events="none"><line transform="translate(0,0)" x2="0" y2="5" stroke="#3f3f3f" stroke-width="1" opacity="1"/><line transform="translate(28,0)" x2="0" y2="5" stroke="#3f3f3f" stroke-width="1" opacity="1"/><line transform="translate(56,0)" x2="0" y2="5" stroke="#3f3f3f" stroke-width="1" opacity="1"/><line transform="translate(84,0)" x2="0" y2="5" stroke="#3f3f3f" stroke-width="1" opacity="1"/><line transform="translate(112,0)" x2="0" y2="5" stroke="#3f3f3f" stroke-width="1" opacity="1"/><line transform="translate(140,0)" x2="0" y2="5" stroke="#3f3f3f" stroke-width="1" opacity="1"/><line transform="translate(168,0)" x2="0" y2="5" stroke="#3f3f3f" stroke-width="1" opacity="1"/><line transform="translate(196,0)" x2="0" y2="5" stroke="#3f3f3f" stroke-width="1" opacity="1"/><line transform="translate(224,0)" x2="0" y2="5" stroke="#3f3f3f" stroke-width="1" opacity="1"/><line transform="translate(252,0)" x2="0" y2="5" stroke="#3f3f3f" stroke-width="1" opacity="1"/><line transform="translate(280,0)" x2="0" y2="5" stroke="#3f3f3f" stroke-width="1" opacity="1"/><line transform="translate(308,0)" x2="0" y2="5" stroke="#3f3f3f" stroke-width="1" opacity="1"/><line transform="translate(336,0)" x2="0" y2="5" stroke="#3f3f3f" stroke-width="1" opacity="1"/><line transform="translate(364,0)" x2="0" y2="5" stroke="#3f3f3f" stroke-width="1" opacity="1"/><line transform="translate(392,0)" x2="0" y2="5" stroke="#3f3f3f" stroke-width="1" opacity="1"/><line transform="translate(420,0)" x2="0" y2="5" stroke="#3f3f3f" stroke-width="1" opacity="1"/><line transform="translate(448,0)" x2="0" y2="5" stroke="#3f3f3f" stroke-width="1" opacity="1"/><line transform="translate(476,0)" x2="0" y2="5" stroke="#3f3f3f" stroke-width="1" opacity="1"/><line transform="translate(504,0)" x2="0" y2="5" stroke="#3f3f3f" stroke-width="1" opacity="1"/><line transform="translate(532,0)" x2="0" y2="5" stroke="#3f3f3f" stroke-width="1" opacity="1"/><line transform="translate(560,0)" x2="0" y2="5" stroke="#3f3f3f" stroke-width="1" opacity="1"/></g><g class="mark-text role-axis-label" pointer-events="none"><text text-anchor="start" transform="translate(0,15)" font-family="sans-serif" font-size="10px" fill="#8b8b8b" opacity="1">0.0</text><text text-anchor="middle" transform="translate(28,15)" font-family="sans-serif" font-size="10px" fill="#8b8b8b" opacity="0">0.2</text><text text-anchor="middle" transform="translate(56,15)" font-family="sans-serif" font-size="10px" fill="#8b8b8b" opacity="1">0.4</text><text text-anchor="middle" transform="translate(84,15)" font-family="sans-serif" font-size="10px" fill="#8b8b8b" opacity="0">0.6</text><text text-anchor="middle" transform="translate(112,15)" font-family="sans-serif" font-size="10px" fill="#8b8b8b" opacity="1">0.8</text><text text-anchor="middle" transform="translate(140,15)" font-family="sans-serif" font-size="10px" fill="#8b8b8b" opacity="0">1.0</text><text text-anchor="middle" transform="translate(168,15)" font-family="sans-serif" font-size="10px" fill="#8b8b8b" opacity="1">1.2</text><text text-anchor="middle" transform="translate(196,15)" font-family="sans-serif" font-size="10px" fill="#8b8b8b" opacity="0">1.4</text><text text-anchor="middle" transform="translate(224,15)" font-family="sans-serif" font-size="10px" fill="#8b8b8b" opacity="1">1.6</text><text text-anchor="middle" transform="translate(252,15)" font-family="sans-serif" font-size="10px" fill="#8b8b8b" opacity="0">1.8</text><text text-anchor="middle" transform="translate(280,15)" font-family="sans-serif" font-size="10px" fill="#8b8b8b" opacity="1">2.0</text><text text-anchor="middle" transform="translate(308,15)" font-family="sans-serif" font-size="10px" fill="#8b8b8b" opacity="0">2.2</text><text text-anchor="middle" transform="translate(336,15)" font-family="sans-serif" font-size="10px" fill="#8b8b8b" opacity="1">2.4</text><text text-anchor="middle" transform="translate(364,15)" font-family="sans-serif" font-size="10px" fill="#8b8b8b" opacity="0">2.6</text><text text-anchor="middle" transform="translate(392,15)" font-family="sans-serif" font-size="10px" fill="#8b8b8b" opacity="1">2.8</text><text text-anchor="middle" transform="translate(420,15)" font-family="sans-serif" font-size="10px" fill="#8b8b8b" opacity="0">3.0</text><text text-anchor="middle" transform="translate(448,15)" font-family="sans-serif" font-size="10px" fill="#8b8b8b" opacity="1">3.2</text><text text-anchor="middle" transform="translate(476,15)" font-family="sans-serif" font-size="10px" fill="#8b8b8b" opacity="0">3.4</text><text text-anchor="middle" transform="translate(504,15)" font-family="sans-serif" font-size="10px" fill="#8b8b8b" opacity="1">3.6</text><text text-anchor="middle" transform="translate(532,15)" font-family="sans-serif" font-size="10px" fill="#8b8b8b" opacity="0">3.8</text><text text-anchor="end" transform="translate(560,15)" font-family="sans-serif" font-size="10px" fill="#8b8b8b" opacity="1">4.0</text></g><g class="mark-rule role-axis-domain" pointer-events="none"><line transform="translate(0,0)" x2="560" y2="0" stroke="#3f3f3f" stroke-width="1" opacity="1"/></g><g class="mark-text role-axis-title" pointer-events="none"><text text-anchor="middle" transform="translate(280,30)" font-family="sans-serif" font-size="11px" font-weight="bold" fill="#8b8b8b" opacity="1">relative throughput (x)</text></g></g><path class="foreground" aria-hidden="true" d="" pointer-events="none" display="none"/></g></g><g class="mark-group role-axis" role="graphics-symbol" aria-roledescription="axis" aria-label="Y-axis for a discrete scale with 2 values: cnfast, clsx + tailwind-merge"><g transform="translate(0.5,0.5)"><path class="background" aria-hidden="true" d="M0,0h0v0h0Z" pointer-events="none"/><g><g class="mark-text role-axis-label" pointer-events="none"><text text-anchor="end" transform="translate(-2,27.500000000000007)" font-family="sans-serif" font-size="13px" fill="#ffffff" opacity="1">cnfast</text><text text-anchor="end" transform="translate(-2,75.5)" font-family="sans-serif" font-size="13px" fill="#ffffff" opacity="1">clsx + tailwind-merge</text></g></g><path class="foreground" aria-hidden="true" d="" pointer-events="none" display="none"/></g></g><g class="mark-group role-scope" role="graphics-object" aria-roledescription="group mark container"><g transform="translate(0,9.000000000000007)"><path class="background" aria-hidden="true" d="M0,0L432.77281618117917,0C434.98047627915514,0,436.77281618117917,1.792339902024,436.77281618117917,4L436.77281618117917,26C436.77281618117917,28.207660097976,434.98047627915514,30,432.77281618117917,30L0,30C0,30,0,30,0,30L0,0C0,0,0,0,0,0Z"/><g clip-path="url(#clip1)"><g class="mark-group role-scope" role="graphics-object" aria-roledescription="group mark container"><g transform="translate(0,0)"><path class="background" aria-hidden="true" d="M0,0h0v30h0Z"/><g><g class="mark-rect role-mark layer_0_marks" role="graphics-object" aria-roledescription="rect mark container"><path aria-label="speed: 3.11980582987; tool: cnfast; color: #22c55e" role="graphics-symbol" aria-roledescription="bar" d="M0,0h436.77281618117917v30h-436.77281618117917Z" fill="#22c55e"/></g></g><path class="foreground" aria-hidden="true" d="" display="none"/></g></g></g><path class="foreground" aria-hidden="true" d="" display="none"/></g><g transform="translate(0,57)"><path class="background" aria-hidden="true" d="M0,0L136,0C138.207660097976,0,140,1.792339902024,140,4L140,26C140,28.207660097976,138.207660097976,30,136,30L0,30C0,30,0,30,0,30L0,0C0,0,0,0,0,0Z"/><g clip-path="url(#clip2)"><g class="mark-group role-scope" role="graphics-object" aria-roledescription="group mark container"><g transform="translate(0,0)"><path class="background" aria-hidden="true" d="M0,0h0v30h0Z"/><g><g class="mark-rect role-mark layer_0_marks" role="graphics-object" aria-roledescription="rect mark container"><path aria-label="speed: 1; tool: clsx + tailwind-merge; color: #3f3f3f" role="graphics-symbol" aria-roledescription="bar" d="M0,0h140v30h-140Z" fill="#3f3f3f"/></g></g><path class="foreground" aria-hidden="true" d="" display="none"/></g></g></g><path class="foreground" aria-hidden="true" d="" display="none"/></g></g><g class="mark-text role-mark layer_1_marks" role="graphics-object" aria-roledescription="text mark container"><text aria-label="speed: 3.11980582987; tool: cnfast; label: 3.12x" role="graphics-symbol" aria-roledescription="text mark" text-anchor="start" transform="translate(444.77281618117917,28.000000000000007)" font-family="sans-serif" font-size="14px" font-weight="bold" fill="#ffffff">3.12x</text><text aria-label="speed: 1; tool: clsx + tailwind-merge; label: 1.00x" role="graphics-symbol" aria-roledescription="text mark" text-anchor="start" transform="translate(148,76)" font-family="sans-serif" font-size="14px" font-weight="bold" fill="#ffffff">1.00x</text></g><g class="mark-group role-title"><g transform="translate(-220,-48)"><path class="background" aria-hidden="true" d="M0,0h0v0h0Z" pointer-events="none"/><g><g class="mark-text role-title-text" role="graphics-symbol" aria-roledescription="title" aria-label="Title text 'cnfast is 3.12x faster than clsx + tailwind-merge'" pointer-events="none"><text text-anchor="start" transform="translate(0,13)" font-family="sans-serif" font-size="17px" font-weight="bold" fill="#ffffff" opacity="1">cnfast is 3.12x faster than clsx + tailwind-merge</text></g><g class="mark-text role-title-subtitle" role="graphics-symbol" aria-roledescription="subtitle" aria-label="Subtitle text 'geometric mean of 59 workloads, byte-identical output, 9.04 KB gzipped'" pointer-events="none"><text text-anchor="start" transform="translate(0,29)" font-family="sans-serif" font-size="12px" fill="#8b8b8b" opacity="1">geometric mean of 59 workloads, byte-identical output, 9.04 KB gzipped</text></g></g><path class="foreground" aria-hidden="true" d="" pointer-events="none" display="none"/></g></g></g><path class="foreground" aria-hidden="true" d="" display="none"/></g></g></g><defs><clipPath id="clip1"><path d="M0,0L432.77281618117917,0C434.98047627915514,0,436.77281618117917,1.792339902024,436.77281618117917,4L436.77281618117917,26C436.77281618117917,28.207660097976,434.98047627915514,30,432.77281618117917,30L0,30C0,30,0,30,0,30L0,0C0,0,0,0,0,0Z"/></clipPath><clipPath id="clip2"><path d="M0,0L136,0C138.207660097976,0,140,1.792339902024,140,4L140,26C140,28.207660097976,138.207660097976,30,136,30L0,30C0,30,0,30,0,30L0,0C0,0,0,0,0,0Z"/></clipPath></defs></svg>